<?xml version="1.0" encoding="UTF-8" standalone="no"?>
<!-- Created with Inkscape (http://www.inkscape.org/) -->

<svg
   width="512"
   height="512"
   viewBox="0 0 512 512"
   version="1.1"
   id="svg1"
   xml:space="preserve"
   sodipodi:docname="VANILLNYAWITHBG.svg"
   inkscape:version="1.3.2 (091e20e, 2023-11-25, custom)"
   inkscape:export-filename="CRYINGBG.svg"
   inkscape:export-xdpi="96"
   inkscape:export-ydpi="96"
   xmlns:inkscape="http://www.inkscape.org/namespaces/inkscape"
   xmlns:sodipodi="http://sodipodi.sourceforge.net/DTD/sodipodi-0.dtd"
   xmlns="http://www.w3.org/2000/svg"
   xmlns:svg="http://www.w3.org/2000/svg"><sodipodi:namedview
     id="namedview1"
     pagecolor="#ffffff"
     bordercolor="#000000"
     borderopacity="0.25"
     inkscape:showpageshadow="2"
     inkscape:pageopacity="0.0"
     inkscape:pagecheckerboard="0"
     inkscape:deskcolor="#d1d1d1"
     inkscape:document-units="px"
     inkscape:zoom="1.2782552"
     inkscape:cx="161.93949"
     inkscape:cy="222.56901"
     inkscape:window-width="1920"
     inkscape:window-height="1027"
     inkscape:window-x="-8"
     inkscape:window-y="-8"
     inkscape:window-maximized="1"
     inkscape:current-layer="layer6"
     showguides="false" /><defs
     id="defs1"><inkscape:path-effect
       effect="spiro"
       id="path-effect70"
       is_visible="true"
       lpeversion="1" /><inkscape:path-effect
       effect="spiro"
       id="path-effect68"
       is_visible="true"
       lpeversion="1" /><inkscape:path-effect
       effect="spiro"
       id="path-effect60"
       is_visible="true"
       lpeversion="1" /><inkscape:path-effect
       effect="spiro"
       id="path-effect58"
       is_visible="true"
       lpeversion="1" /><inkscape:path-effect
       effect="spiro"
       id="path-effect11"
       is_visible="true"
       lpeversion="1" /><inkscape:path-effect
       effect="spiro"
       id="path-effect5-2"
       is_visible="true"
       lpeversion="1" /></defs><g
     inkscape:groupmode="layer"
     id="layer7"
     inkscape:label="Layer 2"><path
       style="fill:#cccccc;fill-opacity:1;stroke:none;stroke-width:0;stroke-linecap:round;stroke-linejoin:miter;stroke-dasharray:none;stroke-opacity:1"
       id="path70"
       sodipodi:type="arc"
       sodipodi:cx="256"
       sodipodi:cy="256"
       sodipodi:rx="231.1745"
       sodipodi:ry="231.1745"
       sodipodi:start="0"
       sodipodi:end="6.1658088"
       sodipodi:arc-type="arc"
       d="M 487.1745,256 A 231.1745,231.1745 0 0 1 262.78264,487.07498 231.1745,231.1745 0 0 1 25.223505,269.55944 231.1745,231.1745 0 0 1 235.67543,25.720689 231.1745,231.1745 0 0 1 485.58385,228.92781"
       sodipodi:open="true" /><path
       style="fill:#ffffff;fill-opacity:1;stroke:none;stroke-width:0;stroke-linecap:round;stroke-linejoin:miter;stroke-dasharray:none;stroke-opacity:1"
       id="path72"
       sodipodi:type="arc"
       sodipodi:cx="253.47052"
       sodipodi:cy="298.06253"
       sodipodi:rx="161.9395"
       sodipodi:ry="75.884689"
       sodipodi:start="0"
       sodipodi:end="6.1658088"
       sodipodi:open="true"
       sodipodi:arc-type="arc"
       d="M 415.41002,298.06253 A 161.9395,75.884689 0 0 1 258.22181,373.91455 161.9395,75.884689 0 0 1 91.809826,302.51351 161.9395,75.884689 0 0 1 239.23301,222.47169 a 161.9395,75.884689 0 0 1 175.06275,66.7042" /></g><g
     inkscape:groupmode="layer"
     id="layer6"
     inkscape:label="Layer 1"
     transform="translate(-3.9437363,-13.561493)"><path
       id="path32"
       style="display:inline;fill:#000000;fill-opacity:1;stroke:none;stroke-width:2.63397;stroke-linecap:round;stroke-dasharray:none;stroke-opacity:1"
       d="m 58.332629,112.50529 c -1.945693,1.1311 -2.46144,3.7827 -3.40592,5.66455 0.02727,47.84867 -0.05449,95.7052 0.04087,143.54898 1.121977,4.66962 3.25087,9.25461 3.60747,14.01057 -0.465136,1.60975 -3.268841,2.32157 -1.914862,4.3294 13.327635,43.09601 26.655378,86.19199 39.983219,129.28793 2.646766,2.13575 6.415034,2.31077 9.597864,3.37743 15.7148,4.26531 31.90431,6.25379 48.07268,7.84607 31.38588,3.17809 62.79364,6.89746 94.38507,6.98307 24.55353,0.19012 49.16773,-0.0554 73.60095,-2.73028 23.13004,-2.29914 46.29078,-4.39857 69.34762,-7.35212 10.02639,-1.8581 20.126,-3.71033 29.81894,-6.92614 2.88694,-0.76384 2.39741,-4.46478 3.53002,-6.67863 12.84846,-41.58853 25.69721,-83.17696 38.5461,-124.76534 0.029,-1.81542 -3.13457,-2.59458 -2.19027,-4.67583 0.88104,-4.78718 3.09332,-9.33514 3.6589,-14.17618 V 118.18111 c -0.975,-1.89134 -1.54996,-4.54309 -3.51728,-5.67653 -4.30225,0.84148 -8.41246,2.72411 -12.60466,4.04017 -28.53579,17.01151 -57.34779,33.56959 -85.59328,51.06159 -5.75338,4.16217 -11.07145,8.96751 -16.32143,13.7129 -5.30135,-0.20625 -10.24352,-2.63303 -15.41176,-3.68342 -17.24016,-4.28867 -34.88139,-7.23317 -52.64025,-8.07093 -18.70924,-0.53944 -37.52525,-1.00073 -56.11888,1.57793 -16.18946,1.94259 -32.20741,5.41677 -47.77625,10.19192 -2.80785,0.77315 -4.11846,-2.3929 -6.10783,-3.67865 -6.05445,-5.18579 -11.99058,-10.62076 -19.06733,-14.40619 -26.35005,-15.8429 -52.873674,-31.40115 -79.358324,-47.01382 -4.05318,-1.1757 -8.020094,-2.98119 -12.161381,-3.73079 z M 176.36786,256.24665 c 13.27387,-0.20012 25.60136,10.79158 26.90309,23.9692 0.64,4.10252 0.23773,8.42199 1.20544,12.4029 4.11565,1.47038 8.45332,2.51753 12.66737,3.58139 2.67678,1.54789 0.78371,4.76145 0.45243,7.02889 -4.69363,18.50146 -21.90923,33.24066 -40.90345,34.74349 -10.60692,1.21634 -21.88349,-1.73776 -30.6563,-8.05924 -12.03551,-8.41081 -19.35583,-23.60463 -17.18232,-38.33823 0.89718,-5.85866 2.79419,-11.79897 6.41086,-16.54897 1.67597,-1.28183 3.95571,-0.0394 5.89071,-0.26923 2.42707,0.15781 4.68551,1.52105 7.07898,1.48839 1.84457,-3.62855 3.48212,-7.55369 6.44045,-10.5236 5.44219,-6.27141 13.47412,-9.67402 21.69274,-9.47499 z m 168.00752,23.1297 c 8.41389,-0.10474 10.72312,-7.70475 15.87859,-1.13874 2.01719,2.23097 8.78304,-2.16605 10.06292,0.48007 1.26079,1.15791 6.65532,-2.73454 8.17641,-2.48794 2.02611,-0.024 4.68283,-1.2595 5.96125,1.05638 3.10892,4.73756 5.24004,10.2774 5.74489,15.93587 0.14785,6.50529 0.48782,13.22352 -2.35679,19.27344 -6.0619,16.19539 -23.04224,27.21629 -40.15977,27.09654 -10.91579,0.63408 -21.54468,-3.66851 -30.11746,-10.28614 -9.09009,-7.21771 -15.53049,-17.82639 -16.98755,-29.33825 -0.19175,-2.01783 1.97839,-2.78514 3.61104,-2.85107 4.7155,-1.24699 9.51634,-2.48571 14.06818,-4.13044 1.01486,-1.68936 0.21101,-4.11901 0.5026,-6.09882 -0.1205,-13.28513 12.96019,-8.12037 26.04164,-10.66087 2.0679,-0.43037 -2.53751,3.12854 -0.42595,3.14997 z"
       sodipodi:nodetypes="scccccccccccccccccccccccccccsscccccccccccccccccccccccccccc" /><path
       id="path58"
       style="display:inline;fill:#000000;fill-opacity:1;stroke:#000000;stroke-width:7.3;stroke-linecap:round;stroke-dasharray:none;stroke-opacity:1"
       transform="translate(-1.1524446,-1.4405557)"
       d="m 56.757896,275.43426 c -9.079405,13.17746 -14.694624,28.71958 -16.134224,44.65723 -1.696929,18.7865 2.463565,38.06982 11.812557,54.453 10.538695,18.46801 27.653128,33.09308 47.538338,40.62368 m 2.016773,0.57622 c 5.92816,1.65283 11.91735,3.08673 17.95127,4.29781 5.67791,1.13962 11.39433,2.08178 17.12767,2.898 8.92788,1.27101 17.89613,2.23672 26.86496,3.17619 13.9111,1.45716 27.83106,2.85202 41.78236,3.85362 18.14092,1.30239 36.32962,1.93916 54.51721,1.90861 m 159.9662,-16.07713 c -5.92816,1.65283 -11.91735,3.08674 -17.95127,4.29781 -5.67791,1.13962 -11.39433,2.08176 -17.12767,2.898 -8.92787,1.27103 -17.89612,2.23682 -26.86496,3.17619 -13.91111,1.45701 -27.83111,2.85131 -41.78236,3.85362 -19.07458,1.37039 -38.20186,2.00722 -57.32535,1.90861 m 206.28506,-320.3796 c 4.42232,8.25106 8.00034,16.95434 10.66012,25.93 5.62269,18.97426 7.09459,39.02975 5.76222,58.77467 -1.32233,19.59619 -5.36025,38.91977 -10.372,57.91034 -1.96259,7.43668 -4.07599,14.83356 -6.33845,22.18456 m 0.28811,-0.86433 c 9.07941,13.17746 14.69463,28.71958 16.13423,44.65723 1.69693,18.7865 -2.46357,38.06982 -11.81256,54.453 -10.5387,18.46801 -27.65313,33.09308 -47.53834,40.62368"
       inkscape:original-d="m 56.757896,275.43426 c -5.570149,14.69367 -10.852186,29.67545 -16.134224,44.65723 -5.282038,14.98178 8.067112,36.302 11.812557,54.453 3.745445,18.15101 32.556559,27.56264 47.538338,40.62368 m 2.016773,0.57622 c 6.18748,1.39624 12.13801,3.20377 17.95127,4.29781 5.81326,1.09405 11.48925,2.05083 17.12767,2.898 9.29245,1.3962 17.3304,1.53789 26.86496,3.17619 10.62042,1.82489 25.6022,2.92931 41.78236,3.85362 16.18016,0.92431 39.10327,0.80418 54.51721,1.90861 m 159.9662,-16.07713 c -6.18748,1.39624 -12.13801,3.20377 -17.95127,4.29781 -5.81326,1.09405 -11.48925,2.05083 -17.12767,2.898 -9.29245,1.3962 -17.3304,1.53789 -26.86496,3.17619 -10.62042,1.82489 -25.6022,2.92931 -41.78236,3.85362 -16.18016,0.92431 -41.91141,0.80418 -57.32535,1.90861 m 206.28506,-320.3796 c 3.74545,8.5473 7.20278,17.3827 10.66012,25.93 3.45733,8.5473 3.84148,39.08708 5.76222,58.77467 1.92074,19.6876 -6.91467,38.6069 -10.372,57.91034 -3.45734,19.30345 -4.22563,14.78971 -6.33845,22.18456 m 0.28811,-0.86433 c 5.57015,14.69367 10.85219,29.67545 16.13423,44.65723 5.28204,14.98178 -8.06711,36.302 -11.81256,54.453 -3.74544,18.15101 -32.55656,27.56264 -47.53834,40.62368"
       inkscape:path-effect="#path-effect60" /><path
       style="display:inline;fill:#000000;fill-opacity:1;stroke:#000000;stroke-width:7.3;stroke-linecap:round;stroke-dasharray:none;stroke-opacity:1"
       transform="translate(-1.1524446,-1.4405557)"
       d="m 56.757896,111.49902 c -4.42232,8.25106 -8.000335,16.95434 -10.660112,25.93 -5.622684,18.97426 -7.094589,39.02975 -5.762223,58.77467 1.32233,19.59619 5.360253,38.91977 10.372001,57.91034 1.962593,7.43668 4.075987,14.83356 6.338445,22.18456"
       id="path57"
       inkscape:original-d="m 56.757896,111.49902 c -3.745445,8.5473 -7.202778,17.3827 -10.660112,25.93 -3.457334,8.5473 -3.841482,39.08708 -5.762223,58.77467 -1.920741,19.6876 6.914667,38.6069 10.372001,57.91034 3.457334,19.30345 4.22563,14.78971 6.338445,22.18456"
       inkscape:path-effect="#path-effect58" /><path
       style="display:inline;fill:#000000;fill-opacity:1;stroke:#000000;stroke-width:7.3;stroke-linecap:round;stroke-dasharray:none;stroke-opacity:1"
       transform="translate(-1.1524446,-1.4405557)"
       d="m 264.19792,167.68068 c -16.3771,-0.38308 -32.78773,0.67879 -48.97889,3.16923 -13.55136,2.0844 -26.9488,5.1687 -40.04745,9.21956 m 0.57621,0 c -9.20942,-8.04258 -18.72634,-15.73302 -28.523,-23.04889 C 130.19787,144.30536 112.26783,132.69081 93.059901,123.59969 81.536583,118.1457 69.577462,113.61281 57.334118,110.05846 m 200.660322,57.67932 c 16.3771,-0.38308 32.78773,0.67879 48.97889,3.16923 13.55136,2.0844 26.9488,5.1687 40.04745,9.21956 m -0.57622,0 c 9.20942,-8.04258 18.72634,-15.73302 28.523,-23.04889 17.02692,-12.71522 34.95697,-24.32977 54.1649,-33.42089 11.52332,-5.45399 23.48244,-9.98688 35.72578,-13.54123"
       id="path11"
       inkscape:original-d="m 264.19792,167.68068 c -15.36592,0.48019 -53.295,-12.21386 -48.97889,3.16923 8.53893,30.43371 -26.6983,4.89789 -40.04745,9.21956 m 0.57621,0 c -9.31559,-7.49089 -19.20741,-15.26989 -28.523,-23.04889 -9.31559,-7.779 -36.10993,-22.2806 -54.164889,-33.42089 -18.054966,-11.1403 -23.625114,-9.02749 -35.725783,-13.54123 m 200.660322,57.67932 c 15.36592,0.48019 53.295,-12.21386 48.97889,3.16923 -8.53893,30.43371 26.6983,4.89789 40.04745,9.21956 m -0.57622,0 c 9.31559,-7.49089 19.20741,-15.26989 28.523,-23.04889 9.31559,-7.779 36.10993,-22.2806 54.1649,-33.42089 18.05496,-11.1403 23.62511,-9.02749 35.72578,-13.54123"
       inkscape:path-effect="#path-effect11" /><path
       style="display:inline;fill:#000000;fill-opacity:1;stroke:#000000;stroke-width:7.3;stroke-linecap:round;stroke-dasharray:none;stroke-opacity:1"
       transform="translate(-4.2453716,-0.40958002)"
       d="m 373.86684,289.28659 c 0.65756,6.90302 -1.71937,14.04106 -6.3841,19.17178 -4.66474,5.13073 -11.5449,8.17453 -18.47917,8.17524 -6.75973,6.9e-4 -13.44187,-2.86096 -18.23288,-7.62963 -4.791,-4.76866 -7.67062,-11.36593 -8.08936,-18.11267 -0.42278,-6.81183 1.66468,-13.7822 5.90697,-19.12848 4.24229,-5.34628 10.62751,-8.98459 17.41172,-9.72909 6.82327,-0.74879 13.92067,1.46937 19.10322,5.97035 5.18255,4.50099 8.373,11.2177 8.58736,18.07859 l -25.43856,3.20391 z"
       id="path66"
       inkscape:original-d="m 373.86684,289.28659 c 0,14.79727 -11.27233,24.65567 -24.86327,27.34702 -26.89008,5.32491 -27.39564,-10.26326 -26.32224,-25.7423 1.02344,-14.75869 9.51832,-27.55662 23.31869,-28.85757 13.80037,-1.30096 26.06817,9.35349 27.69058,24.04894 l -25.43856,3.20391 z"
       inkscape:path-effect="#path-effect68"
       sodipodi:nodetypes="csssccc" /><path
       style="display:inline;fill:#000000;fill-opacity:1;stroke:#000000;stroke-width:7.3;stroke-linecap:round;stroke-dasharray:none;stroke-opacity:1"
       transform="translate(-1.1524446,-1.4405557)"
       d="m 202.14693,287.78141 c 0.65756,6.90302 -1.71937,14.04106 -6.3841,19.17178 -4.66474,5.13073 -11.5449,8.17453 -18.47917,8.17524 -6.75973,6.9e-4 -13.44187,-2.86096 -18.23287,-7.62963 -4.79101,-4.76866 -7.67062,-11.36593 -8.08937,-18.11267 -0.42278,-6.81183 1.66468,-13.78219 5.90696,-19.12848 4.24229,-5.34628 10.62751,-8.98458 17.41172,-9.72909 6.82327,-0.74879 13.92067,1.46936 19.10322,5.97035 5.18256,4.50099 8.37301,11.2177 8.58736,18.07859 l -25.43856,3.20391 z"
       id="path68"
       inkscape:original-d="m 202.14693,287.78141 a 25.614807,27.358795 0 0 1 -24.86327,27.34702 25.614807,27.358795 0 0 1 -26.32224,-25.7423 25.614807,27.358795 0 0 1 23.31868,-28.85757 25.614807,27.358795 0 0 1 27.69058,24.04894 l -25.43856,3.20391 z"
       inkscape:path-effect="#path-effect70" /><path
       id="path5-8"
       style="display:inline;fill:none;fill-opacity:1;stroke:#ffffff;stroke-width:10;stroke-linecap:round;stroke-linejoin:miter;stroke-dasharray:none;stroke-opacity:1"
       transform="matrix(-1,0,0,1,518.35534,7.72022)"
       d="m 221.48634,345.09141 c 3.72956,1.24294 7.62786,1.97847 11.55391,2.17998 5.64759,0.28988 11.49723,-0.58434 16.34988,-3.48797 4.85255,-2.90357 8.468,-7.80452 9.80992,-13.2979 m 37.66895,14.18615 c -3.72956,1.24294 -7.62786,1.97847 -11.55391,2.17998 -5.64759,0.28988 -11.49723,-0.58434 -16.34988,-3.48797 -4.85255,-2.90357 -8.468,-7.80452 -9.80992,-13.2979"
       inkscape:original-d="m 221.48634,345.09141 c 4.0693,0.58133 7.9206,1.38065 11.55391,2.17998 3.63331,0.79933 10.82725,-2.39798 16.34988,-3.48797 5.52262,-1.08999 6.53995,-8.7926 9.80992,-13.2979 m 37.66895,14.18615 c -4.0693,0.58133 -7.9206,1.38065 -11.55391,2.17998 -3.63331,0.79933 -10.82725,-2.39798 -16.34988,-3.48797 -5.52262,-1.08999 -6.53995,-8.7926 -9.80992,-13.2979"
       inkscape:path-effect="#path-effect5-2" /></g></svg>
