<?xml version="1.0" encoding="UTF-8" standalone="no"?>
<svg
   width="100"
   height="100"
   viewBox="0 20 150 150"
   version="1.1"
   id="svg4"
   sodipodi:docname="characters.svg"
   inkscape:version="1.3.2 (091e20e, 2023-11-25, custom)"
   xmlns:inkscape="http://www.inkscape.org/namespaces/inkscape"
   xmlns:sodipodi="http://sodipodi.sourceforge.net/DTD/sodipodi-0.dtd"
   xmlns="http://www.w3.org/2000/svg"
   xmlns:svg="http://www.w3.org/2000/svg">
  <defs
     id="defs8">
    <inkscape:path-effect
       effect="fillet_chamfer"
       id="path-effect2"
       is_visible="true"
       lpeversion="1"
       nodesatellites_param="F,0,1,1,0,2.0128682,0,1 @ F,0,1,1,0,2.0128682,0,1 @ F,0,1,1,0,2.0128682,0,1 @ F,0,1,1,0,2.0128682,0,1 @ F,0,0,1,0,2.0128682,0,1 @ F,0,1,1,0,2.0128682,0,1 @ F,0,1,1,0,2.0128682,0,1 | F,0,1,1,0,2.0128682,0,1 @ F,0,1,1,0,2.0128682,0,1 @ F,0,1,1,0,2.0128682,0,1 @ F,0,1,1,0,2.0128682,0,1 | F,0,1,1,0,2.0128682,0,1 @ F,0,1,1,0,2.0128682,0,1 @ F,0,1,1,0,2.0128682,0,1 @ F,0,1,1,0,2.0128682,0,1 @ F,0,1,1,0,2.0128682,0,1 @ F,0,1,1,0,2.0128682,0,1 @ F,0,1,1,0,2.0128682,0,1"
       radius="0"
       unit="px"
       method="auto"
       mode="F"
       chamfer_steps="1"
       flexible="false"
       use_knot_distance="true"
       apply_no_radius="true"
       apply_with_radius="true"
       only_selected="false"
       hide_knots="false" />
    <inkscape:path-effect
       effect="fillet_chamfer"
       id="path-effect1"
       is_visible="true"
       lpeversion="1"
       nodesatellites_param="F,0,0,1,0,12,0,1 @ F,0,0,1,0,12.003563,0,1 @ F,0,0,1,0,12.003563,0,1 @ F,0,0,1,0,12,0,1"
       radius="0"
       unit="px"
       method="auto"
       mode="F"
       chamfer_steps="1"
       flexible="false"
       use_knot_distance="true"
       apply_no_radius="true"
       apply_with_radius="true"
       only_selected="false"
       hide_knots="false" />
    <filter
       id="mask-powermask-path-effect2_inverse"
       inkscape:label="filtermask-powermask-path-effect2"
       style="color-interpolation-filters:sRGB"
       height="100"
       width="100"
       x="-50"
       y="-50">
      <feColorMatrix
         id="mask-powermask-path-effect2_primitive1"
         values="1"
         type="saturate"
         result="fbSourceGraphic" />
      <feColorMatrix
         id="mask-powermask-path-effect2_primitive2"
         values="-1 0 0 0 1 0 -1 0 0 1 0 0 -1 0 1 0 0 0 1 0 "
         in="fbSourceGraphic" />
    </filter>
    <mask
       maskUnits="userSpaceOnUse"
       id="mask4">
      <path
         id="path4"
         style="fill:#ffffff;fill-opacity:1;stroke:none;stroke-width:6;stroke-linecap:butt;stroke-linejoin:round;stroke-dasharray:none;stroke-opacity:1"
         d="M 0,20 V 170 H 150 V 52.988281 L 84.026367,118.96191 51.038086,85.973633 117.01172,20 Z M 117.01172,20 150,52.988281 V 20 Z" />
    </mask>
  </defs>
  <sodipodi:namedview
     id="namedview6"
     pagecolor="#ffffff"
     bordercolor="#666666"
     borderopacity="1.0"
     inkscape:pageshadow="2"
     inkscape:pageopacity="0.0"
     inkscape:pagecheckerboard="0"
     showgrid="true"
     inkscape:zoom="7.9423549"
     inkscape:cx="59.554126"
     inkscape:cy="47.529984"
     inkscape:window-width="2560"
     inkscape:window-height="1369"
     inkscape:window-x="1912"
     inkscape:window-y="-8"
     inkscape:window-maximized="1"
     inkscape:current-layer="svg4"
     width="100px"
     inkscape:showpageshadow="2"
     inkscape:deskcolor="#d1d1d1"
     showguides="false">
    <inkscape:grid
       type="xygrid"
       id="grid821"
       spacingx="1.5"
       spacingy="1.5"
       units="px"
       empspacing="10"
       originx="0"
       originy="0"
       visible="true" />
  </sodipodi:namedview>
  <path
     d="M 18.838226,89.503136 33.098191,59.099813 a 3.1673614,3.1673614 147.56391 0 1 2.867611,-1.822376 3.0982268,3.0982268 33.71357 0 1 2.678915,1.787531 l 15.775852,30.473013 a 1.2245514,1.2245514 121.31472 0 1 -1.087465,1.787531 h -1.849816 a 3.2609478,3.2609478 31.685572 0 1 -2.915054,-1.79936 L 36.813638,66.082264 a 0.952565,0.952565 178.69642 0 0 -1.721589,0.03918 l -10.41361,23.365536 a 3.1008303,3.1008303 147.01085 0 1 -2.832271,1.838536 H 19.996351 A 1.2791841,1.2791841 57.563912 0 1 18.838226,89.503136 Z M 89.791701,123.03843 H 60.070673 a 2.0128682,2.0128682 45 0 1 -2.012868,-2.01287 v -0.79523 a 2.0128682,2.0128682 135 0 1 2.012868,-2.01287 h 29.721028 a 2.0128682,2.0128682 45 0 1 2.012868,2.01287 v 0.79523 a 2.0128682,2.0128682 135 0 1 -2.012868,2.01287 z M 95.371124,89.503136 109.63109,59.099813 a 3.1673612,3.1673612 147.56391 0 1 2.86761,-1.822376 3.098227,3.098227 33.713568 0 1 2.67891,1.787531 l 15.77586,30.473013 a 1.2245513,1.2245513 121.31472 0 1 -1.08747,1.787531 h -1.84981 a 3.260948,3.260948 31.685571 0 1 -2.91506,-1.79936 L 113.34654,66.082264 a 0.95256523,0.95256523 178.69642 0 0 -1.72159,0.03918 l -10.41362,23.365536 a 3.1008307,3.1008307 147.01085 0 1 -2.832268,1.838536 h -1.849813 a 1.2791842,1.2791842 57.563911 0 1 -1.158125,-1.822376 z"
     id="text1"
     style="font-size:75.3276px;line-height:1.25;-inkscape-font-specification:sans-serif;fill:#a6a6a6;stroke:#a6a6a6;stroke-width:6;fill-opacity:1"
     transform="scale(1.0009185,0.99908235)"
     aria-label="^_^"
     inkscape:path-effect="#path-effect2"
     inkscape:original-d="M 17.983483,91.325512 33.952934,57.277437 h 3.76638 L 55.345972,91.325512 H 49.47042 L 35.911452,64.282904 23.859036,91.325512 Z M 91.804569,123.03843 H 58.057805 v -4.82097 H 91.804569 Z M 94.516381,91.325512 110.48583,57.277437 h 3.76638 l 17.62666,34.048075 h -5.87555 L 112.44435,64.282904 100.39193,91.325512 Z" />
</svg>
